<?xml version="1.0" encoding="UTF-8" standalone="no"?>
<!-- Created with Inkscape (http://www.inkscape.org/) -->

<svg
   width="15.05mm"
   height="18.149mm"
   viewBox="0 0 15.05 18.149"
   version="1.1"
   id="svg2590"
   inkscape:version="1.1.2 (0a00cf5339, 2022-02-04)"
   sodipodi:docname="bullet.svg"
   xmlns:inkscape="http://www.inkscape.org/namespaces/inkscape"
   xmlns:sodipodi="http://sodipodi.sourceforge.net/DTD/sodipodi-0.dtd"
   xmlns="http://www.w3.org/2000/svg"
   xmlns:svg="http://www.w3.org/2000/svg">
  <sodipodi:namedview
     id="namedview2592"
     pagecolor="#ffffff"
     bordercolor="#666666"
     borderopacity="1.0"
     inkscape:pageshadow="2"
     inkscape:pageopacity="0.0"
     inkscape:pagecheckerboard="0"
     inkscape:document-units="mm"
     showgrid="false"
     inkscape:zoom="5.8083614"
     inkscape:cx="20.745954"
     inkscape:cy="20.91812"
     inkscape:window-width="1920"
     inkscape:window-height="990"
     inkscape:window-x="1280"
     inkscape:window-y="28"
     inkscape:window-maximized="1"
     inkscape:current-layer="layer1"
     inkscape:snap-global="false" />
  <defs
     id="defs2587" />
  <g
     inkscape:label="Vrstva 1"
     inkscape:groupmode="layer"
     id="layer1">
    <path
       id="path2806-3"
       style="fill:#00ffff;stroke-width:0.264583"
       d="m 4.1041684,13.17937 c -3.04006,-3.9914899 -3.51814005,-4.7461599 -3.24957,-5.1295999 0.17319,-0.24727 1.51725,-1.7429 2.98679,-3.32363 1.46955,-1.58073 3.04688,-3.29077 3.50519,-3.80010007 L 8.1798684,0 12.006929,3.9687501 c 2.10488,2.18281 3.82971,4.0351 3.83295,4.11618 0.003,0.0811 -0.27867,0.49781 -0.62648,0.92604 -0.34781,0.42824 -2.07685,2.5943199 -3.84232,4.8135099 -1.7654706,2.21919 -3.3207606,4.0349 -3.4562006,4.0349 -0.13544,0 -1.85026,-2.10601 -3.81071,-4.68001 z m 6.8591406,-0.2388 c 1.09667,-1.37754 1.93061,-2.6071 1.85321,-2.73235 -0.3857,-0.6240599 -1.51736,-0.5502399 -2.51068,0.16377 -0.9716706,0.69845 -1.0338906,0.83387 -1.3953706,3.03724 -0.20809,1.2684 -0.27997,2.24539 -0.15973,2.17108 0.12024,-0.0743 1.1158899,-1.26219 2.2125706,-2.63974 z m -2.8727706,0.48704 c 0.14776,-1.12779 0.24288,-2.08399 0.21137,-2.12489 -0.0315,-0.0409 -0.6643,-0.14625 -1.4062,-0.23412 l -1.3489,-0.15976 0.97407,2.28465 c 0.53574,1.25655 1.04763,2.28464 1.13754,2.28464 0.0899,0 0.28436,-0.92274 0.43212,-2.05052 z M 5.1807984,12.26 c -0.54612,-1.23487 -1.86041,-2.6009399 -2.18758,-2.2737605 -0.1189,0.1188905 2.62115,3.8920305 2.74345,3.7778205 0.0426,-0.0397 -0.20759,-0.71656 -0.55587,-1.50406 z m 4.6299699,-2.6727899 0.9764507,-0.85596 -0.9617407,-2.56351 c -0.5289599,-1.40993 -1.0760599,-2.49286 -1.2157799,-2.40652 -0.13971,0.0864 -0.17245,0.025 -0.0728,-0.1363 0.23315,-0.37723 -0.10402,-1.75015 -0.35892,-1.46148 -0.34778,0.39386 -2.70068,7.53236 -2.53676,7.6962904 0.14698,0.1469685 1.85115,0.4847795 2.79618,0.5542595 0.21828,0.0161 0.83628,-0.356 1.3733299,-0.8267799 z m -4.0853099,-3.1802 c 0.61846,-1.78555 1.1202,-3.36227 1.11496,-3.50382 -0.005,-0.14154 -0.27312,0.0573 -0.59531,0.44181 -0.32219,0.38455 -1.44537,1.64644 -2.49595,2.80422 l -1.91015,2.10505 1.24869,0.69508 c 0.68678,0.38229 1.30823,0.69711 1.38099,0.69959 0.0728,0.002 0.63831,-1.45638 1.25677,-3.24193 z m 8.5730506,2.36665 c 0.42938,-0.59177 0.39043,-0.65129 -2.20227,-3.36512 -1.45167,-1.51949 -2.5602906,-2.52458 -2.4636006,-2.23354 0.096699,0.29104 0.5905506,1.67535 1.0974806,3.07623 0.83524,2.30815 1.00051,2.5724 1.7619,2.81726 1.21185,0.38971 1.32295,0.37158 1.80649,-0.29483 z" />
    <path
       id="path2806"
       style="fill:#0000ff;stroke-width:0.264583"
       d="M 3.3139111,13.469083 C 0.27385112,9.4775922 -0.20422888,8.7229222 0.06434112,8.3394822 c 0.17319,-0.24727 1.51724998,-1.7429 2.98678998,-3.32363 1.46955,-1.58073 3.04688,-3.29077 3.50519,-3.8001 l 0.83329,-0.92604011 3.8270609,3.96875011 c 2.10488,2.18281 3.82971,4.0351 3.83295,4.11618 0.003,0.0811 -0.27867,0.49781 -0.62648,0.92604 -0.34781,0.42824 -2.07685,2.5943208 -3.84232,4.8135108 -1.7654709,2.21919 -3.3207609,4.0349 -3.4562009,4.0349 -0.13544,0 -1.85026,-2.10601 -3.81071,-4.68001 z m 6.8591409,-0.2388 c 1.09667,-1.37754 1.93061,-2.6071 1.85321,-2.73235 -0.3857,-0.6240608 -1.51736,-0.5502413 -2.5106809,0.16377 -0.97167,0.69845 -1.03389,0.83387 -1.39537,3.03724 -0.20809,1.2684 -0.27997,2.24539 -0.15973,2.17108 0.12024,-0.0743 1.11589,-1.26219 2.2125709,-2.63974 z m -2.8727709,0.48704 c 0.14776,-1.12779 0.24288,-2.08399 0.21137,-2.12489 -0.0315,-0.0409 -0.6643,-0.14625 -1.4062,-0.23412 l -1.3489,-0.15976 0.97407,2.28465 c 0.53574,1.25655 1.04763,2.28464 1.13754,2.28464 0.0899,0 0.28436,-0.92274 0.43212,-2.05052 z m -2.90974,-1.16761 c -0.54612,-1.23487 -1.86041,-2.6009413 -2.18758,-2.27376 -0.1189,0.11889 2.62115,3.89203 2.74345,3.77782 0.0426,-0.0397 -0.20759,-0.71656 -0.55587,-1.50406 z m 4.62997,-2.6727908 0.9764505,-0.85596 -0.9617405,-2.56351 c -0.52896,-1.40993 -1.07606,-2.49286 -1.21578,-2.40652 -0.13971,0.0864 -0.17245,0.025 -0.0728,-0.1363 0.23315,-0.37723 -0.10402,-1.75015 -0.35892,-1.46148 -0.34778,0.39386 -2.70068,7.5323595 -2.53676,7.6962898 0.14698,0.146971 1.85115,0.484781 2.79618,0.554261 0.21828,0.0161 0.83628,-0.356 1.37333,-0.8267808 z m -4.08531,-3.1802 c 0.61846,-1.78555 1.1202,-3.36227 1.11496,-3.50382 -0.005,-0.14154 -0.27312,0.0573 -0.59531,0.44181 -0.32219,0.38455 -1.44537,1.64644 -2.49595,2.80422 l -1.91015,2.10505 1.24869,0.69508 c 0.68678,0.38229 1.30823,0.6971095 1.38099,0.6995895 0.0728,0.002 0.63831,-1.4563795 1.25677,-3.2419295 z m 8.5730509,2.36665 c 0.42938,-0.59177 0.39043,-0.65129 -2.20227,-3.36512 -1.4516709,-1.51949 -2.5602909,-2.52458 -2.4636009,-2.23354 0.0967,0.29104 0.59055,1.67535 1.0974805,3.07623 0.8352404,2.30815 1.0005104,2.5724 1.7619004,2.81726 1.21185,0.38971 1.32295,0.37158 1.80649,-0.29483 z" />
  </g>
</svg>
