<?xml version="1.0" encoding="UTF-8" standalone="no"?>
<!-- Created with Inkscape (http://www.inkscape.org/) -->

<svg
   width="367.42801mm"
   height="245.08501mm"
   viewBox="0 0 367.42801 245.08501"
   version="1.1"
   id="svg5"
   inkscape:version="1.1.2 (0a00cf5339, 2022-02-04)"
   sodipodi:docname="crystal-ship.svg"
   xmlns:inkscape="http://www.inkscape.org/namespaces/inkscape"
   xmlns:sodipodi="http://sodipodi.sourceforge.net/DTD/sodipodi-0.dtd"
   xmlns="http://www.w3.org/2000/svg"
   xmlns:svg="http://www.w3.org/2000/svg">
  <sodipodi:namedview
     id="namedview7"
     pagecolor="#ffffff"
     bordercolor="#666666"
     borderopacity="1.0"
     inkscape:pageshadow="2"
     inkscape:pageopacity="0.0"
     inkscape:pagecheckerboard="0"
     inkscape:document-units="mm"
     showgrid="false"
     inkscape:zoom="0.25669573"
     inkscape:cx="500.59266"
     inkscape:cy="734.33242"
     inkscape:window-width="1920"
     inkscape:window-height="990"
     inkscape:window-x="0"
     inkscape:window-y="28"
     inkscape:window-maximized="1"
     inkscape:current-layer="layer1" />
  <defs
     id="defs2" />
  <g
     inkscape:label="Vrstva 1"
     inkscape:groupmode="layer"
     id="layer1">
    <path
       style="fill:#e8e7e7;fill-opacity:1;stroke-width:0.264583"
       d="m 138.69219,238.92937 c -2.68473,0.26796 -3.92307,0.26989 -6.29719,0.01 -9.15057,-1.00232 -17.39689,-7.09281 -21.33534,-15.75762 l -0.90326,-1.98716 -26.268269,11.92436 C 55.595404,245.96229 56.528505,245.58682 55.059377,244.71882 54.464991,244.36763 52.181087,239.422 27.205942,184.40403 L 0,124.47181 l 0.3457931,-1.1059 0.3457907,-1.1059 22.5170682,-10.2985 22.517024,-10.29859 -2.027039,-4.465394 c -1.597956,-3.52015 -2.017582,-4.65008 -1.982386,-5.33799 0.09283,-1.81438 -0.244138,-1.62307 15.240686,-8.652333 12.705474,-5.767592 14.19288,-6.39502 14.90083,-6.28516 1.523572,0.236359 1.934778,0.796869 4.126108,5.624162 l 2.028692,4.469031 58.182723,-26.411776 58.18272,-26.411767 -2.0497,-4.517709 c -1.85583,-4.090166 -2.03805,-4.613025 -1.9268,-5.525069 0.0676,-0.55406 0.35299,-1.239297 0.63413,-1.522777 0.69502,-0.700675 48.85436,-22.56237561 49.83931,-22.62431361 0.39849,-0.02507 1.10217,0.211217 1.56374,0.525061 0.75981,0.51663401 1.03336,0.99803801 2.89074,5.08750101 l 2.0506,4.5172936 3.31351,-1.5019526 c 9.55241,-4.329686 19.18171,-5.705498 29.00249,-4.14458 3.53264,0.561464 10.05265,2.946564 13.09726,4.791127 7.57304,4.5880576 13.98051,11.5130636 18.28348,19.7602416 l 1.3573,2.601492 -0.3626,1.160183 -0.3626,1.160177 -7.59429,3.531846 -7.59429,3.531844 0.51248,0.684993 c 0.28187,0.376749 1.5373,1.860935 2.78987,3.298184 1.25255,1.437271 3.6339,4.202085 5.29187,6.144036 l 3.0145,3.530823 3.51394,0.691297 c 1.93266,0.380223 5.80033,1.119343 8.59482,1.642519 8.45752,1.583361 12.95652,2.431389 14.29907,2.695261 0.70188,0.137947 2.34692,0.449348 3.65566,0.691994 7.56407,1.402434 10.09792,1.930673 10.83175,2.258103 l 0.81984,0.365833 8.79267,19.369465 c 6.41018,14.12105 8.79241,19.568964 8.79164,20.105744 -5.4e-4,0.40496 -0.35309,1.15953 -0.78337,1.67684 -0.72558,0.87231 -1.25873,1.15681 -7.34642,3.92029 l -6.56405,2.97973 0.62208,0.96001 c 0.75011,1.1575 2.12026,5.26533 2.57451,7.71854 1.546,8.34926 -1.20134,16.94479 -7.53227,23.566 l -1.59228,1.66528 -5.5812,2.63427 c -5.95893,2.81264 -6.99862,3.15249 -10.13123,3.31194 -4.54595,0.23136 -9.48153,-0.80983 -13.401,-2.82705 -5.54044,-2.85228 -9.85622,-7.3558 -12.3837,-12.9236 l -0.96996,-2.13674 -72.8493,33.06959 -72.84939,33.06962 0.59098,0.98956 c 0.83734,1.40207 2.21524,5.73462 2.61009,8.20695 1.06526,6.66997 -0.61462,13.88463 -4.52224,19.42183 -0.56259,0.79722 -1.84777,2.3262 -2.85595,3.39777 l -1.83306,1.94827 -5.9964,2.79287 c -5.75844,2.682 -6.07361,2.80058 -7.94222,2.98705 z m 9.35014,-10.41013 c 1.92659,-1.46019 3.50983,-3.28965 4.97934,-5.75377 2.26166,-3.7924 3.16439,-7.97747 2.70915,-12.55947 -0.25515,-2.56811 -0.36867,-2.96041 -1.73781,-6.00532 -1.70085,-3.78261 -2.72223,-5.15357 -5.61035,-7.53058 -7.98152,-6.56901 -19.71376,-6.03787 -27.15896,1.22956 -10.92374,10.66289 -6.4924,29.20984 8.11119,33.9487 2.83701,0.92061 5.04996,1.16351 8.03225,0.88179 3.95137,-0.37332 7.41389,-1.73913 10.67519,-4.21091 z m -11.01672,-4.97345 c -5.90898,0.69251 -11.16821,-2.93326 -12.43228,-8.57094 -0.54793,-2.44374 -0.39115,-4.44741 0.52353,-6.69084 2.90859,-7.13392 11.43338,-9.28843 17.59336,-4.44646 1.43502,1.12797 1.54426,1.28419 2.75692,3.94284 1.19006,2.609 1.26088,2.87994 1.23101,4.70728 -0.0174,1.06641 -0.22936,2.55903 -0.47096,3.31694 -1.30165,4.08341 -5.07454,7.25751 -9.20158,7.74118 z m 2.13663,-7.77509 c 1.41522,-1.52252 1.6219,-4.4489 0.43815,-6.20356 -0.69271,-1.0268 -2.86783,-2.09968 -4.17624,-2.05996 -2.32032,0.0704 -4.3613,1.80278 -4.76966,4.04838 -0.39117,2.15109 0.58987,4.14815 2.62785,5.34938 1.59092,0.93773 4.47024,0.38229 5.8799,-1.13424 z M 342.5356,140.07538 c 6.73022,-5.34412 9.2432,-14.79403 6.13959,-23.08747 -1.83025,-4.89076 -5.29924,-8.65243 -10.16341,-11.02092 -3.82648,-1.86322 -7.91674,-2.45811 -12.26444,-1.78374 -2.70605,0.41975 -6.93973,2.26677 -9.14765,3.99085 -5.555,4.33767 -8.44349,11.40294 -7.68153,18.78901 0.26718,2.58991 2.12602,7.15088 3.8592,9.4691 7.00522,9.36999 20.00721,10.98894 29.25824,3.64317 z m -10.98256,-4.68974 c -5.679,0.88346 -11.2498,-2.63206 -12.6912,-8.00909 -2.03495,-7.59091 3.74521,-14.66683 11.68492,-14.30441 2.05171,0.0936 4.59584,1.15699 6.35078,2.65436 1.52679,1.30272 1.67198,1.51079 2.82267,4.04565 1.19277,2.62756 1.21144,2.71029 1.11416,4.9418 -0.14901,3.41881 -1.5255,6.19767 -4.1049,8.28729 -1.48943,1.20659 -3.47015,2.11896 -5.17642,2.38441 z m 1.67632,-7.62727 c 0.67915,-0.68185 1.33065,-2.2084 1.37445,-3.22055 0.0889,-2.05418 -0.99958,-3.81494 -2.88434,-4.66598 -1.53431,-0.69281 -2.56993,-0.7034 -4.0285,-0.0413 -3.36092,1.52569 -4.01295,5.81685 -1.24227,8.1756 0.93622,0.79701 2.57264,1.33136 3.76543,1.22953 0.73753,-0.063 2.43475,-0.8945 3.01523,-1.47725 z m -224.2742,83.57814 c 0.23852,-7.47725 3.54921,-14.32454 9.32662,-19.2897 2.54134,-2.18405 7.40869,-4.64346 10.86651,-5.4907 8.46959,-2.07525 17.9543,0.30558 24.23118,6.08243 l 1.42717,1.31349 52.37348,-23.7747 52.37347,-23.77469 -4.23788,-9.33574 -4.23788,-9.33576 -21.92391,9.95225 -21.9239,9.95225 1.15554,2.54569 c 1.53764,3.38745 1.94882,5.15253 1.8858,8.09516 -0.0726,3.39041 -1.24417,6.50596 -3.41901,9.09228 -0.86892,1.03331 -2.10072,2.25774 -2.73734,2.72094 -0.71916,0.52325 -4.70659,2.45328 -10.52973,5.09666 -5.82313,2.64339 -9.90086,4.37451 -10.76816,4.57142 -2.00894,0.45609 -5.81042,0.29853 -7.84444,-0.32515 -2.18392,-0.66965 -4.964,-2.40082 -6.62175,-4.12341 -1.01925,-1.05913 -1.58283,-1.96039 -2.90126,-4.63964 l -1.63628,-3.32518 -36.63155,16.69143 c -20.14735,9.18028 -45.818022,20.86608 -57.045985,25.96835 l -20.414438,9.27691 4.210568,9.2755 4.210572,9.27552 25.351277,-11.52347 25.351276,-11.52348 0.11002,-3.44872 z m 194.09163,-85.33116 c -0.0446,-0.33932 -0.051,-1.61872 -0.0141,-2.84315 0.24293,-8.05615 4.50067,-15.88857 11.22575,-20.65055 3.67427,-2.601734 9.57355,-4.650844 13.974,-4.853864 7.08039,-0.32667 14.28119,2.21061 19.22357,6.773644 l 1.39636,1.28918 5.58493,-2.45728 5.58489,-2.45726 -4.23992,-9.340184 -4.23993,-9.340173 -47.34123,21.490327 -47.3412,21.49032 4.2379,9.33574 4.23791,9.33573 18.89616,-8.57782 18.89616,-8.57782 z m -101.58225,38.0588 c 1.61309,-1.66389 2.69847,-4.54965 2.54692,-6.77151 l -0.11109,-1.62866 -12.02474,-26.5661 c -6.61364,-14.61134 -12.25507,-26.85381 -12.53651,-27.20549 -1.0249,-1.28056 -2.66794,-2.368554 -4.40717,-2.918364 -3.59769,-1.1373 -4.0469,-1.0153 -14.96847,4.066854 -8.08348,3.76148 -8.82801,4.15143 -9.69158,5.07651 -1.12332,1.20332 -2.17453,3.22033 -2.4835,4.76523 -0.53736,2.68684 -1.09818,1.2929 12.45181,30.94968 l 12.36981,27.0737 1.03487,0.79403 c 1.51678,1.16379 3.80274,2.04312 5.50549,2.11778 2.06024,0.0903 4.04075,-0.64207 13.32087,-4.92615 7.57464,-3.49679 7.8427,-3.64065 8.9933,-4.8275 z m -39.91305,-27.67614 -1.202,-0.49203 -4.90527,-10.80586 -4.90527,-10.80587 0.2855,-1.01838 c 0.15711,-0.56009 0.63049,-1.31744 1.05208,-1.68297 0.51672,-0.44803 4.09365,-2.14449 10.97629,-5.20581 l 10.20977,-4.54122 1.1448,0.42994 1.14477,0.42995 4.79386,10.24038 c 2.63666,5.63218 4.88429,10.69189 4.99478,11.24376 0.11695,0.58394 0.0173,1.38835 -0.2384,1.92428 l -0.43936,0.92088 -10.85478,4.92748 -10.85479,4.92749 z m 13.40234,-20.16771 -3.16712,-6.97686 -6.98674,3.17159 -6.98675,3.1716 3.09869,6.82614 c 1.70428,3.75437 3.20507,6.86608 3.33509,6.91491 0.13003,0.0488 3.30486,-1.31055 7.05517,-3.02086 l 6.81878,-3.10963 z m -15.27208,42.03071 -1.6253,-3.4028 -56.97811,25.86494 -56.978112,25.86494 1.34822,3.15 c 0.741542,1.7325 1.466522,3.26667 1.611089,3.40925 0.21502,0.21198 10.649859,-4.45586 57.255243,-25.61216 l 56.99228,-25.87137 z m 87.24015,-39.67484 -1.58581,-3.49338 -21.92392,9.95226 -21.92392,9.95226 1.58579,3.49338 1.5858,3.49337 21.92393,-9.95226 21.92393,-9.95226 z m 100.46457,-45.605425 -1.5858,-3.493373 -47.34122,21.490324 -47.34122,21.490324 1.5858,3.49337 1.5858,3.49338 47.34122,-21.490324 47.34123,-21.490325 z M 148.50006,133.47101 c -6.80484,-15.30983 -6.93484,-15.62816 -7.10803,-17.40369 -0.37686,-3.86349 1.00995,-8.3686 3.46957,-11.27115 2.38234,-2.81134 2.76428,-3.03612 13.23458,-7.789064 8.33732,-3.78469 9.73435,-4.35539 11.27524,-4.60606 4.62261,-0.75199 9.04975,0.41035 12.46513,3.2727 1.05138,0.88113 2.3195,2.19277 2.81805,2.91472 0.57865,0.83797 3.33148,6.654814 7.61233,16.085134 l 6.70589,14.77247 21.92393,-9.95227 21.92392,-9.95226 -9.10376,-20.057194 c -8.82147,-19.435302 -9.1001,-20.087563 -8.9842,-21.037272 0.0657,-0.539055 0.30498,-1.235829 0.53088,-1.54854 0.335,-0.463086 7.71106,-3.882159 39.80201,-18.449689 l 39.39078,-17.881263 -0.2269,-0.704037 c -0.30777,-0.955019 -3.35484,-5.244095 -5.26371,-7.409255 -0.85531,-0.970153 -2.27777,-2.393376 -3.16103,-3.16274 -0.88325,-0.76936 -1.62284,-1.436174 -1.64355,-1.481802 -0.0207,-0.04561 -0.9232,-0.702827 -2.00548,-1.460458 -9.0215,-6.3151 -19.93524,-7.8429406 -32.23248,-4.512295 -2.02507,0.548479 -18.25952,7.861949 -124.47772,56.076062 C 68.263517,98.407806 11.96902,123.96243 10.346752,124.70136 l -2.9496391,1.34337 16.9334061,37.30275 c 9.31338,20.51654 17.038818,37.3424 17.167677,37.39076 0.128812,0.0484 25.816598,-11.55796 57.083905,-25.79188 l 56.849659,-25.87989 z m -84.495927,51.02376 c -5.39596,1.00393 -11.164458,-1.12904 -14.67285,-5.42543 -1.14667,-1.40422 -7.135007,-14.38988 -7.534458,-16.33841 -0.489932,-2.38991 -0.184266,-5.87497 0.728432,-8.30515 0.946683,-2.52066 3.024824,-5.31688 5.082257,-6.83834 0.80183,-0.59295 10.823345,-5.25278 33.949468,-15.7859 36.526578,-16.63652 33.960088,-15.59986 38.248668,-15.44957 2.61627,0.0917 6.67854,1.62342 8.67053,3.26927 2.57794,2.13003 3.30314,3.28466 6.55341,10.43421 1.68941,3.71583 3.05752,7.02057 3.24063,7.82711 0.17431,0.76776 0.29726,2.51627 0.27324,3.88558 -0.0768,4.37549 -2.17495,8.5776 -5.70891,11.4335 -1.14182,0.92275 -5.04606,2.74404 -34.389383,16.04241 -25.399877,11.51115 -33.413019,15.0595 -34.441034,15.25072 z m 23.114292,-32.61376 -5.964346,-13.13891 -14.966161,6.87685 -14.966162,6.87684 -1.037943,1.23403 c -1.53925,1.83002 -2.254819,3.64307 -2.325446,5.89201 l -0.0619,1.97085 3.064639,6.75111 3.064638,6.75113 1.306706,1.07452 c 1.500735,1.23407 3.968245,2.24798 5.658634,2.32514 0.639872,0.0292 1.823583,-0.13714 2.630464,-0.36965 0.806887,-0.23253 7.788241,-3.27628 15.514126,-6.76392 l 14.047073,-6.34113 z m 42.825835,-4.55328 c 1.37562,-1.60713 2.27566,-3.77755 2.40456,-5.79853 l 0.0954,-1.49616 -3.28096,-7.22766 c -3.18423,-7.01458 -3.31148,-7.25237 -4.31541,-8.06564 -1.29144,-1.04614 -3.0592,-1.80751 -4.73201,-2.03808 -2.68303,-0.3698 -3.11571,-0.21085 -18.76708,6.89401 l -14.404719,6.53895 5.961783,13.13328 5.961781,13.13326 14.968725,-6.8712 14.96872,-6.87119 z m 69.99813,-38.27593 c -1.84779,-0.0587 -1.76568,0.0777 -7.33091,-12.181974 l -5.04718,-11.11848 0.43459,-1.157181 c 0.34924,-0.92991 0.68619,-1.311579 1.71572,-1.943386 2.26858,-1.392207 25.52248,-11.549896 26.42893,-11.544536 1.85372,0.01089 1.7147,-0.214592 7.20259,11.681071 4.68294,10.150852 4.98372,10.875372 4.9224,11.858052 -0.13359,2.14188 0.202,1.9421 -14.34055,8.536744 -11.52531,5.22637 -13.12334,5.8971 -13.98559,5.86969 z m 17.78395,-23.426134 -3.33689,-7.350862 -9.66852,4.464973 -9.66856,4.464879 3.24457,7.31684 3.24457,7.316834 9.76087,-4.430904 9.76089,-4.43092 z M 336.97606,66.680045 c -0.0452,-0.09961 -5.88488,-1.236806 -19.28408,-3.755324 -3.49441,-0.656804 -6.71202,-1.263961 -7.15026,-1.349233 -0.43825,-0.08527 -1.42504,-0.258405 -2.19289,-0.384744 l -1.39608,-0.229722 -32.83872,14.906976 -32.83872,14.906978 3.66203,8.0671 3.66202,8.067094 44.21171,-20.063104 c 24.31632,-11.034982 44.19071,-20.109365 44.16489,-20.166231 z m -83.45851,31.634601 c -2.04893,-0.25006 -3.25951,-2.89892 -2.10256,-4.60056 0.5194,-0.76391 1.04594,-1.04103 7.84047,-4.12639 l 7.28368,-3.30749 1.04221,0.32597 c 1.9717,0.61667 2.80946,3.1526 1.5637,4.73338 -0.44739,0.56775 -1.76014,1.23961 -7.60016,3.88975 -6.53485,2.9656 -7.13126,3.19471 -8.02736,3.08534 z m 47.65961,-42.006142 c -0.10936,-0.240918 -1.05855,-1.356844 -7.52513,-8.846865 -1.65917,-1.921749 -3.04185,-3.549612 -3.07266,-3.617477 -0.0308,-0.06784 -13.22843,5.856166 -29.32807,13.16452 l -29.27205,13.287904 3.33565,7.348128 3.33564,7.348122 31.31989,-14.217509 c 21.42192,-9.724374 31.28414,-14.296282 31.20673,-14.466823 z m -230.104288,30.661142 -1.278509,-2.616473 -10.1037,4.586523 c -5.55704,2.52259 -10.197335,4.5963 -10.311763,4.60828 -0.11443,0.012 0.314976,1.25538 0.954209,2.76309 l 1.16224,2.7413 10.428,-4.73317 10.427995,-4.73315 -1.278499,-2.61647 z M 240.4034,10.122511 c -1.15642,-2.5474976 -1.21412,-2.6279176 -1.77243,-2.4642996 -0.31737,0.093 -9.6439,4.3191606 -20.72568,9.3914106 l -20.14868,9.222285 1.20178,2.647423 1.2018,2.647436 20.71931,-9.405435 20.71931,-9.405436 z"
       id="path1154" />
  </g>
</svg>
