<?xml version="1.0" encoding="UTF-8" standalone="no"?>
<!-- Created with Inkscape (http://www.inkscape.org/) -->

<svg
   width="32.554001mm"
   height="35.762001mm"
   viewBox="0 0 32.554001 35.762001"
   version="1.1"
   id="svg5"
   inkscape:version="1.1.2 (0a00cf5339, 2022-02-04)"
   sodipodi:docname="heisenberg.svg"
   xmlns:inkscape="http://www.inkscape.org/namespaces/inkscape"
   xmlns:sodipodi="http://sodipodi.sourceforge.net/DTD/sodipodi-0.dtd"
   xmlns="http://www.w3.org/2000/svg"
   xmlns:svg="http://www.w3.org/2000/svg">
  <sodipodi:namedview
     id="namedview7"
     pagecolor="#ffffff"
     bordercolor="#666666"
     borderopacity="1.0"
     inkscape:pageshadow="2"
     inkscape:pageopacity="0.0"
     inkscape:pagecheckerboard="0"
     inkscape:document-units="mm"
     showgrid="false"
     inkscape:zoom="0.51339147"
     inkscape:cx="566.81893"
     inkscape:cy="417.80983"
     inkscape:window-width="1920"
     inkscape:window-height="990"
     inkscape:window-x="1280"
     inkscape:window-y="28"
     inkscape:window-maximized="1"
     inkscape:current-layer="layer1" />
  <defs
     id="defs2" />
  <g
     inkscape:label="Vrstva 1"
     inkscape:groupmode="layer"
     id="layer1">
    <path
       style="fill:#ffffff;stroke-width:0.105355"
       d="m 14.761322,35.643186 c -0.9711,-0.24792 -2.22653,-0.790689 -2.65034,-1.145859 -0.21971,-0.18411 -0.58778,-0.493168 -0.81793,-0.686779 -0.55109,-0.463609 -0.70725,-0.803569 -0.79391,-1.728267 -0.0546,-0.582569 -0.0285,-0.917238 0.10797,-1.386777 0.17612,-0.60584 0.17494,-0.900849 -0.009,-2.180838 -0.0777,-0.541319 0.10112,-1.039378 0.54517,-1.518517 0.1405,-0.151609 0.23469,-0.30926 0.20931,-0.350329 -0.0254,-0.0411 0.0405,-0.18954 0.14638,-0.32993 0.16185,-0.21458 0.21856,-0.23365 0.35588,-0.11968 0.17518,0.145379 0.24081,0.12095 0.79651,-0.296519 0.1983,-0.14897 0.48276,-0.276299 0.63213,-0.28295 0.14938,-0.007 0.52597,-0.111232 0.83687,-0.2324 0.49487,-0.192879 0.58438,-0.201219 0.71867,-0.0669 0.19966,0.199659 0.316,0.19375 0.43684,-0.0222 0.12312,-0.219999 0.74705,-0.212479 1.20203,0.0145 0.23085,0.115161 0.3602,0.12904 0.45666,0.049 0.18658,-0.15485 1.52019,0.0386 1.87679,0.272289 0.20459,0.13406 0.31189,0.15095 0.41504,0.0653 0.103,-0.08549 0.28746,-0.0586 0.71062,0.103408 0.31432,0.120379 0.69002,0.244029 0.83489,0.274789 0.40775,0.0866 0.63675,0.33869 0.9827,1.081939 0.28024,0.602089 0.31631,0.786619 0.29858,1.527648 -0.0111,0.463558 -0.0581,0.983987 -0.10455,1.156508 -0.0517,0.192039 -0.0308,0.539319 0.0539,0.895518 0.14974,0.630279 0.10502,1.233608 -0.15132,2.040997 -0.13168,0.414769 -0.29207,0.618069 -0.85195,1.079889 -0.37936,0.312909 -0.74428,0.568929 -0.81094,0.568929 -0.0667,0 -0.41353,0.188939 -0.77081,0.419859 -1.26668,0.818698 -1.40834,0.864609 -2.80001,0.907518 -0.86998,0.0268 -1.45603,-0.008 -1.85637,-0.110162 z m -1.0054,-4.667593 c 0.0383,-0.27524 0.13927,-0.592469 0.22428,-0.704939 0.085,-0.112476 0.15457,-0.27968 0.15457,-0.371539 0,-0.19008 0.76272,-0.720439 1.1589,-0.805859 0.14486,-0.0312 0.37264,-0.109895 0.50617,-0.17481 0.1958,-0.0952 0.31672,-0.0783 0.62483,0.0872 0.21012,0.112882 0.44481,0.19126 0.52152,0.17418 0.0767,-0.0171 0.35867,0.11973 0.62657,0.304059 0.38895,0.2676 0.55877,0.490259 0.84281,1.105008 0.19563,0.42344 0.40152,0.7982 0.45752,0.832809 0.15282,0.0944 0.64117,-0.195619 1.0562,-0.627348 0.30424,-0.31649 0.36804,-0.46088 0.36475,-0.825489 -0.002,-0.24305 -0.0894,-0.617309 -0.19387,-0.831699 -0.10442,-0.21438 -0.16446,-0.43088 -0.13342,-0.481099 0.11049,-0.17879 -0.52532,-0.42305 -1.42993,-0.54933 -0.87357,-0.121949 -0.93194,-0.117529 -1.1965,0.0906 -0.18644,0.14665 -0.3352,0.19036 -0.45124,0.132579 -0.17892,-0.0891 -0.98862,-0.0678 -1.25105,0.0329 -0.0819,0.0314 -0.25215,0.001 -0.37833,-0.0673 -0.32728,-0.177461 -1.13836,-0.28586 -1.3987,-0.186929 -0.1216,0.0462 -0.44615,0.108755 -0.72122,0.139009 -0.5112,0.0562 -0.65104,0.16316 -0.96505,0.738028 -0.20278,0.37123 -0.3298,1.436778 -0.17128,1.436778 0.23402,0 1.27572,0.67732 1.32366,0.860659 0.10221,0.39083 0.35697,0.20812 0.42881,-0.307549 z M 8.5509619,21.585388 c -0.14487,-0.048 -0.59526,-0.25622 -1.00088,-0.46281 -0.809719,-0.412399 -1.141664,-0.825128 -1.46357,-1.819777 -0.204118,-0.630699 -0.722707,-3.849354 -0.634412,-3.937524 0.07842,-0.0783 20.5728821,-0.0585 20.6513321,0.0199 0.0923,0.09229 -0.45584,3.328635 -0.67749,3.999783 -0.27492,0.83244 -0.59714,1.263929 -1.22294,1.637658 -1.04869,0.62626 -1.40969,0.68624 -3.83545,0.63728 -2.14238,-0.0432 -2.20046,-0.0503 -2.66752,-0.32401 -0.516,-0.30239 -0.7454,-0.735658 -0.87872,-1.659587 -0.10686,-0.740659 -0.56117,-2.171486 -0.73538,-2.316067 -0.23197,-0.19252 -0.66093,-0.0426 -0.82835,0.28951 -0.14305,0.283779 -0.41449,1.366778 -0.54565,2.177057 -0.11817,0.730038 -0.44065,1.268097 -0.92294,1.539897 -0.42448,0.239219 -0.54586,0.25168 -2.70952,0.278169 -1.2458201,0.0153 -2.3836501,-0.01151 -2.5285101,-0.0595 z m 3.3186801,-6.611121 c -0.34767,-0.0227 -1.4618,-0.16163 -2.4758501,-0.308749 -2.06382,-0.299429 -6.792344,-1.497538 -7.279612,-1.844497 -0.157186,-0.111929 -0.342787,-0.2035 -0.412451,-0.2035 -0.06966,0 -0.477177,-0.33988 -0.90559202,-0.755288 -0.773888,-0.750399 -0.980012,-1.175909 -0.633956,-1.308698 0.07974,-0.0306 0.636803,0.0164 1.23792102,0.104384 0.601119,0.08801 1.329994,0.188909 1.619718,0.22421 0.289728,0.03529 0.829115,0.110197 1.198642,0.166459 0.369526,0.0563 0.692276,0.0819 0.717227,0.05689 0.02493,-0.02499 0.135815,-1.3898491 0.246373,-3.0331161 0.420953,-6.25679 0.496498,-7.049259 0.692635,-7.26598895 0.246517,-0.272399 1.252832,-0.569199 2.465545,-0.727189 1.16591,-0.151899 6.3066701,-0.0787000009 11.4836901,0.16343 4.60851,0.21558 5.46004,0.346229 5.73611,0.88009895 0.1769,0.342089 0.16802,0.26928 0.58613,4.804742 0.18162,1.970138 0.36382,3.718224 0.4049,3.884654 0.0631,0.2555101 0.16695,0.3311401 0.66779,0.4861101 0.32622,0.100932 1.03592,0.21615 1.57712,0.256049 0.91072,0.0671 2.46324,0.22434 3.18601,0.322609 0.37343,0.0508 0.64037,0.298221 0.55675,0.516109 -0.10185,0.265441 -1.02275,0.8828 -1.81278,1.215279 -0.76212,0.320729 -1.14589,0.40491 -5.52892,1.212788 -2.54557,0.4692 -5.25871,0.834359 -7.11146,0.957139 -0.52151,0.0346 -1.11413,0.08099 -1.31694,0.103117 -0.6243,0.0682 -4.22986,0.13659 -4.899,0.0929 z"
       id="path854" />
  </g>
</svg>
