<?xml version="1.0" encoding="UTF-8" standalone="no"?>
<!-- Created with Inkscape (http://www.inkscape.org/) -->

<svg
   width="95.369003mm"
   height="79.581001mm"
   viewBox="0 0 95.369004 79.581001"
   version="1.1"
   id="svg5"
   inkscape:version="1.1.2 (0a00cf5339, 2022-02-04)"
   sodipodi:docname="meth.svg"
   xmlns:inkscape="http://www.inkscape.org/namespaces/inkscape"
   xmlns:sodipodi="http://sodipodi.sourceforge.net/DTD/sodipodi-0.dtd"
   xmlns="http://www.w3.org/2000/svg"
   xmlns:svg="http://www.w3.org/2000/svg">
  <sodipodi:namedview
     id="namedview7"
     pagecolor="#ffffff"
     bordercolor="#666666"
     borderopacity="1.0"
     inkscape:pageshadow="2"
     inkscape:pageopacity="0.0"
     inkscape:pagecheckerboard="0"
     inkscape:document-units="mm"
     showgrid="false"
     showguides="true"
     width="95.369mm"
     inkscape:zoom="1.4520903"
     inkscape:cx="124.99222"
     inkscape:cy="144.27477"
     inkscape:window-width="1920"
     inkscape:window-height="990"
     inkscape:window-x="0"
     inkscape:window-y="28"
     inkscape:window-maximized="1"
     inkscape:current-layer="layer1" />
  <defs
     id="defs2" />
  <g
     inkscape:label="Vrstva 1"
     inkscape:groupmode="layer"
     id="layer1">
    <path
       style="fill:#e8e7e7;stroke-width:0.264583;fill-opacity:1"
       d="m 71.313207,79.415554 c -2.66342,-0.5138 -4.7625,-3.12642 -4.7625,-5.92763 v -1.39825 l -3.21342,-1.88506 c -2.88501,-1.69239 -3.25782,-1.84489 -3.64771,-1.49204 -1.22225,1.10612 -3.60893,1.49257 -5.67502,0.9189 -2.15191,-0.5975 -4.13513,-3.39537 -4.13112,-5.82807 0.004,-2.21897 1.58599,-4.75838 3.44475,-5.52831 l 0.78711,-0.32602 v -3.78653 c 0,-3.620274 -0.0245,-3.794314 -0.55842,-3.963774 -0.78499,-0.24914 -2.57314,-1.91736 -3.05592,-2.85095 -0.22279,-0.43083 -0.48297,-1.55735 -0.57818,-2.50338 l -0.17311,-1.72005 -3.040575,-1.76817 -3.040576,-1.76818 -1.418063,0.74595 c -4.786728,2.51797 -10.228364,-1.86001 -8.772975,-7.05814 0.389948,-1.39276 2.010629,-3.35516 3.166234,-3.83382 l 0.802831,-0.33255 V 25.33722 21.56496 L 36.65565,21.23737 C 35.732598,20.85503 34.108919,19.14054 33.69723,18.1135 33.539866,17.72092 33.33682,16.68748 33.246018,15.81695 l -0.1651,-1.58276 -3.022585,-1.75233 -3.022584,-1.75233 -1.436052,0.75541 c -1.961087,1.03159 -3.71415,1.0315 -5.675636,-2.9e-4 l -1.436632,-0.75573 -3.022006,1.76476 -3.022006,1.76476 -0.176522,1.76853 c -0.353072,3.53735 -2.7364316,5.73838 -6.2137356,5.73838 -2.8154268,0 -4.9989288,-1.66598 -5.80843076,-4.43174 -0.819511,-2.79996 0.470766,-5.73255 3.09828096,-7.04189 2.0799428,-1.0364796 4.4997918,-0.8938496 6.3224888,0.37266 0.6548776,0.45505 0.6942336,0.44082 3.8364586,-1.3867896 l 3.174793,-1.84655 0.0165,-1.49795 C 16.73019,2.57944 19.368684,0 22.762165,0 c 3.393483,0 6.031971,2.57944 6.068915,5.9330904 l 0.01651,1.49795 3.174794,1.84655 c 3.142226,1.8276096 3.18158,1.8418396 3.836458,1.3867896 1.796346,-1.2481996 4.266518,-1.4103296 6.239219,-0.40951 0.715886,0.36319 1.385219,0.66085 1.487406,0.66146 0.102185,6e-4 1.530935,-0.81006 3.175,-1.8014696 2.37439,-1.43182 3.00354,-1.9352 3.05889,-2.4474 0.24908,-2.30499 0.43487,-2.96562 1.12854,-4.0128704 2.63199,-3.97357 8.90057,-3.36442 10.74812,1.0444504 0.50793,1.21207 0.43929,3.70441 -0.13684,4.96943 -0.64403,1.4141096 -2.38898,2.9433196 -3.79086,3.3221896 -1.50789,0.40752 -3.62876,0.16673 -4.88604,-0.55473 l -1.01594,-0.58297 -3.175,1.82572 c -2.822368,1.62295 -3.166596,1.89835 -3.09931,2.47963 0.23976,2.07124 -1.232609,4.77689 -3.23954,5.95303 l -1.20178,0.70429 v 3.53994 3.53994 l 0.762032,0.39406 c 2.279079,1.17856 3.477872,3.01854 3.566973,5.47481 l 0.05684,1.56691 3.142375,1.82004 3.14237,1.82004 0.97294,-0.64386 c 1.78296,-1.17992 4.68651,-1.16767 6.44723,0.0272 l 0.94606,0.64202 3.18159,-1.86638 3.18159,-1.86638 v -1.39825 c 0,-1.8582 1.05079,-3.87213 2.60573,-4.99413 1.08169,-0.78052 1.28985,-0.83018 3.47969,-0.83018 2.18984,0 2.398,0.0497 3.479685,0.83018 1.55494,1.122 2.60573,3.13593 2.60573,4.99413 v 1.39825 l 3.21343,1.88505 c 2.885,1.6924 3.25781,1.84489 3.6477,1.49204 1.22225,-1.10611 3.60893,-1.49256 5.67502,-0.9189 1.36556,0.37917 3.385682,2.41758 3.809192,3.8437 0.91543,3.0826 -0.47956,6.41781 -3.146362,7.52243 l -0.76357,0.31628 v 3.786534 c 0,3.62026 0.0245,3.79431 0.55842,3.96376 0.91517,0.29047 2.664702,2.03142 3.181292,3.16572 0.56228,1.23459 0.62686,2.92953 0.17022,4.46722 -0.42525,1.43196 -2.376362,3.38308 -3.808332,3.80833 -2.06399,0.61294 -4.42912,0.24477 -5.67588,-0.88354 -0.38989,-0.35285 -0.7627,-0.20035 -3.6477,1.49204 l -3.21343,1.88506 v 1.37651 c 0,2.71152 -2.09612,5.46517 -4.463005,5.86302 -0.52852,0.0888 -1.13955,0.19629 -1.35783,0.23878 -0.21828,0.0425 -0.93265,-0.0261 -1.5875,-0.15243 z m -1.91255,-11.20424 c 1.82817,-1.20432 4.75317,-1.20896 6.51944,-0.0103 l 0.936175,0.63531 3.15227,-1.84918 3.15228,-1.84918 0.10203,-1.80564 c 0.12629,-2.2351 0.97697,-3.66541 2.88568,-4.85194 l 1.30426,-0.81077 v -3.49278 -3.492784 l -1.30426,-0.81077 c -1.91169,-1.18837 -2.75935,-2.61608 -2.88621,-4.86126 l -0.10256,-1.81497 -3.16751,-1.82915 -3.16751,-1.82916 -0.920415,0.62461 c -1.73222,1.17553 -4.80417,1.17553 -6.5364,0 l -0.92042,-0.62461 -3.16751,1.82916 -3.16751,1.82915 -0.10256,1.81497 c -0.12686,2.24518 -0.97452,3.67289 -2.88621,4.86126 l -1.30426,0.81077 v 3.492784 3.49278 l 1.30426,0.81076 c 1.88322,1.17068 2.73142,2.58536 2.91382,4.85987 l 0.14755,1.83982 3.04271,1.81694 c 1.67349,0.99931 3.07502,1.82757 3.11452,1.84057 0.0395,0.013 0.51575,-0.26881 1.05834,-0.62624 z"
       id="path57" />
  </g>
</svg>
